<?xml version="1.0" encoding="utf-8"?>
<!-- Generator: Adobe Illustrator 24.0.3, SVG Export Plug-In . SVG Version: 6.00 Build 0)  -->
<svg version="1.0" id="Layer_1" xmlns="http://www.w3.org/2000/svg" xmlns:xlink="http://www.w3.org/1999/xlink" x="0px" y="0px"
	 viewBox="0 0 792 612" style="enable-background:new 0 0 792 612;" xml:space="preserve">
<style type="text/css">
	.st0{fill:none;stroke:#EE2A7B;stroke-miterlimit:10;}
	.st1{fill:#00AEEF;}
</style>
<g id="IakeG4_1_">
	
		<image style="overflow:visible;" width="800" height="600" id="IakeG4" xlink:href="1041172E23866C1.jpg"  transform="matrix(1 0 0 1 -4 6.5)">
	</image>
</g>
<path class="st0" d="M194.3,301.1c29.2-24,76.4-54.6,139.8-65.2c33.8-5.7,92-15.4,131.2,18.9c5.7,5,33.4,29.1,29.7,60.7
	c-2.5,21.1-17.7,35-20.2,37.2c-14.2,12.6-29.8,14.6-35.8,15.3c-10.6,1.3-24.9,2.9-36.4-6.5c-13.9-11.4-13.2-30.2-13.1-32.8
	c1.1-22.2,19.7-36,23.5-38.8c40.1-29.7,105.2,1.2,110.2,3.7c2.6,1.3,54.9,27.7,80,78.3c4.4,8.8,16.2,35.1,36,55.4
	c8.5,8.8,18.3,16.8,18.3,16.8c10.1,8.2,19.3,14.3,26.6,18.7"/>
<polygon class="st1" points="172.8,302.1 219.8,282.5 201.9,314.4 191.6,305.7 "/>
</svg>
