<?xml version="1.0" encoding="utf-8"?>
<!-- Generator: Adobe Illustrator 24.0.3, SVG Export Plug-In . SVG Version: 6.00 Build 0)  -->
<svg version="1.0" id="Layer_1" xmlns="http://www.w3.org/2000/svg" xmlns:xlink="http://www.w3.org/1999/xlink" x="0px" y="0px"
	 viewBox="0 0 200 200" style="enable-background:new 0 0 200 200;" xml:space="preserve">
<style type="text/css">
	.st0{fill:none;stroke:#F7A4A4;stroke-width:0.5;}
</style>
<g>
	<path class="st0" d="M48.6,38.3c0-9.4,6.6-15.7,15.2-15.7c8.2,0,14,5.6,14,14.9c0,9.5-6.2,15.8-14.9,15.8
		C54.5,53.4,48.6,47.8,48.6,38.3z M71.4,38.2c0-7.8-3.1-12.8-8.1-12.8c-5.1,0-8.3,4.5-8.3,12.1c0,8.4,3.2,13,8.3,13
		C68.2,50.5,71.4,46.5,71.4,38.2z"/>
	<path class="st0" d="M81.6,51.7v-6.5h0.6l2.5,3.1c1.1,1.4,2.6,2.3,4.1,2.3c1.7,0,2.4-0.9,2.4-1.9c0-1.9-2.4-2.5-4.6-3.8
		c-3.4-2-4.8-3.6-4.8-6.3c0-3.4,3-5.5,7.5-5.5c2,0,3.6,0.3,5.3,1v6.1h-0.6L91.3,37c-0.8-0.8-1.8-1.3-2.9-1.3c-1.4,0-2.1,0.8-2.1,1.8
		c0,1.7,1.9,2.6,4.3,3.8c3.5,1.8,5.1,3.4,5.1,6.1c0,3.7-2.7,5.9-7.4,5.9C86.1,53.2,83.3,52.5,81.6,51.7z"/>
	<path class="st0" d="M98,49.8h2l0.2-0.2v-11l-2.9-1.8v-0.5l7.5-3.6l0.6,0.3v16.6l0.2,0.2h2v2.9H98V49.8z M99.5,26.3
		c0-1.7,1.4-3.1,3.2-3.1c1.7,0,3.1,1.4,3.1,3.1c0,1.8-1.4,3.2-3.1,3.2C101,29.5,99.5,28.1,99.5,26.3z"/>
	<path class="st0" d="M117.2,38.4v11.2l0.2,0.2h2.7v2.9h-10.4v-2.9h2l0.2-0.2v-11l-2.9-1.8v-0.6l6.8-3.5l0.6,0.3l0.6,3.3
		c2.2-2,4.3-3.3,6-3.3c0.5,0,0.9,0,1.3,0.2v5.8c-1.8-0.5-3.6-0.8-5.7-0.8C118.2,38.3,117.7,38.4,117.2,38.4z"/>
	<path class="st0" d="M126.2,49.8h2l0.2-0.2v-11l-2.9-1.8v-0.5l7.5-3.6l0.6,0.3v16.6l0.2,0.2h2v2.9h-9.7V49.8z M127.7,26.3
		c0-1.7,1.4-3.1,3.2-3.1c1.7,0,3.1,1.4,3.1,3.1c0,1.8-1.4,3.2-3.1,3.2C129.1,29.5,127.7,28.1,127.7,26.3z"/>
	<path class="st0" d="M138.4,51.7v-6.5h0.6l2.5,3.1c1.1,1.4,2.6,2.3,4.1,2.3c1.7,0,2.4-0.9,2.4-1.9c0-1.9-2.4-2.5-4.6-3.8
		c-3.4-2-4.8-3.6-4.8-6.3c0-3.4,3-5.5,7.5-5.5c2,0,3.6,0.3,5.3,1v6.1h-0.6l-2.6-3.1c-0.8-0.8-1.8-1.3-2.9-1.3
		c-1.4,0-2.1,0.8-2.1,1.8c0,1.7,1.9,2.6,4.3,3.8c3.5,1.8,5.1,3.4,5.1,6.1c0,3.7-2.7,5.9-7.4,5.9C143,53.2,140.1,52.5,138.4,51.7z"/>
</g>
<g>
	<path class="st0" d="M69.5,111.9v3H57.7v-3h2.7l0.2-0.2l-2-4.8H47.7l-1.9,4.8l0.2,0.2h2.7v3h-9.2v-3h2.5l0.2-0.2l10.8-26.2h2.4
		l11.3,26.2l0.2,0.2H69.5z M57.4,103.8l-4.3-10.1h-0.2l-3.9,10.1H57.4z"/>
	<path class="st0" d="M91.7,104.7c0,6-4.1,10.6-9.8,10.6c-1.3,0-2.4-0.2-3.4-0.7v7.5l0.2,0.2h2.7v2.9H71.1v-2.9h2l0.2-0.2v-21.4
		l-2.9-1.8v-0.6l6.8-3.5l0.6,0.3l0.6,2.8c2.2-1.7,4.1-2.9,6.4-2.9C88.8,95.2,91.7,99.1,91.7,104.7z M86.2,105.9
		c0-4.5-1.8-6.8-4.4-6.8c-1.1,0-2,0.1-3.2,0.4v11c0.8,1.4,2,2.2,3.6,2.2C84.9,112.6,86.2,110.1,86.2,105.9z"/>
	<path class="st0" d="M94.7,105.8c0-6,4-10.5,9.9-10.5c5.3,0,9.3,3.7,9.3,9.8s-4.1,10.3-9.9,10.3C98.5,115.4,94.7,111.5,94.7,105.8z
		 M108.3,106.8c0-5.2-2-8.8-4.7-8.8c-2.1,0-3.4,2.2-3.4,5.9c0,5.2,2,8.8,4.7,8.8C107,112.7,108.3,110.5,108.3,106.8z"/>
	<path class="st0" d="M116.4,112h2l0.2-0.2V88.3l-2.9-1.8v-0.5l7.5-3.6l0.6,0.3v29.1l0.2,0.2h2v2.9h-9.7V112z"/>
	<path class="st0" d="M128.1,112h2l0.2-0.2V88.3l-2.9-1.8v-0.5l7.5-3.6l0.6,0.3v29.1l0.2,0.2h2v2.9h-9.7V112z"/>
	<path class="st0" d="M140.3,105.8c0-6,4-10.5,9.9-10.5c5.3,0,9.3,3.7,9.3,9.8s-4.1,10.3-9.9,10.3
		C144.1,115.4,140.3,111.5,140.3,105.8z M153.9,106.8c0-5.2-2-8.8-4.7-8.8c-2.1,0-3.4,2.2-3.4,5.9c0,5.2,2,8.8,4.7,8.8
		C152.6,112.7,153.9,110.5,153.9,106.8z"/>
</g>
<g>
	<path class="st0" d="M45.7,162.6c0-9.4,6.6-15.7,15.2-15.7c8.2,0,14,5.6,14,14.9c0,9.5-6.2,15.8-14.9,15.8
		C51.7,177.8,45.7,172.1,45.7,162.6z M68.5,162.6c0-7.8-3.1-12.8-8.1-12.8c-5.1,0-8.3,4.5-8.3,12.1c0,8.4,3.2,13,8.3,13
		C65.4,174.9,68.5,170.8,68.5,162.6z"/>
	<path class="st0" d="M77.4,174.2h2l0.2-0.2v-23.5l-2.9-1.8v-0.5l7.5-3.6l0.6,0.3V174l0.2,0.2h2v2.9h-9.7V174.2z"/>
	<path class="st0" d="M89.4,174.2h2l0.2-0.2v-11l-2.9-1.8v-0.5l7.5-3.6l0.6,0.3V174l0.2,0.2h2v2.9h-9.7V174.2z M90.9,150.6
		c0-1.7,1.4-3.1,3.2-3.1c1.7,0,3.1,1.4,3.1,3.1c0,1.8-1.4,3.2-3.1,3.2C92.3,153.8,90.9,152.4,90.9,150.6z"/>
	<path class="st0" d="M101.6,161.2l-2.8-2.5v-0.6h11v0.6l-2.5,2.5l4.2,9.7h0.1l4.5-9.7l-2.5-2.5v-0.6h8.5v0.6l-2.8,2.5l-7.8,16.3
		h-2.1L101.6,161.2z"/>
	<path class="st0" d="M137.7,173.3l0.9,1.6c-2,1.6-4.4,2.6-7.3,2.6c-5.4,0-9.5-3.8-9.5-9.7c0-5.8,4-10.4,9.5-10.4
		c4.6,0,7.5,3.1,7.5,7.6c0,0.8,0,1.4-0.2,2.4h-11.2c0.3,4.3,2.4,7,6.1,7C134.8,174.5,136.2,174.1,137.7,173.3z M127.3,165.1h6.4
		c-0.1-3.8-1.2-5.1-3.1-5.1C128.7,160,127.5,161.8,127.3,165.1z"/>
	<path class="st0" d="M148.7,162.8V174l0.2,0.2h2.7v2.9h-10.4v-2.9h2l0.2-0.2v-11l-2.9-1.8v-0.6l6.8-3.5l0.6,0.3l0.6,3.3
		c2.2-2,4.3-3.3,6-3.3c0.5,0,0.9,0,1.3,0.2v5.8c-1.8-0.5-3.6-0.8-5.7-0.8C149.7,162.7,149.2,162.7,148.7,162.8z"/>
</g>
</svg>
