<?xml version="1.0" encoding="utf-8"?>
<!-- Generator: Adobe Illustrator 24.1.1, SVG Export Plug-In . SVG Version: 6.00 Build 0)  -->
<svg version="1.0" id="Layer_1" xmlns="http://www.w3.org/2000/svg" xmlns:xlink="http://www.w3.org/1999/xlink" x="0px" y="0px"
	 viewBox="0 0 390 92" style="enable-background:new 0 0 390 92;" xml:space="preserve">
<style type="text/css">
	.st0{fill:#666666;}
	.st1{fill:#A67C52;}
	.st2{fill:#C1272D;}
	.st3{opacity:0.41;clip-path:url(#SVGID_2_);fill:none;stroke:#A67C52;stroke-width:3;stroke-miterlimit:10;}
	.st4{fill:#8C6239;}
</style>
<g>
	<path class="st0" d="M386,45.53c0,3.64-0.25,7.18-0.72,10.6c-0.17,1.24-0.96,2.31-2.08,2.88c-3.29,1.68-7.17,3.31-11.6,4.86
		c-10.42,3.69-23.88,7.04-39.8,9.97c-0.03,0.01-0.06,0.01-0.1,0.02c-2.79,0.51-5.18-2.09-4.4-4.82c2.02-7.08,3.16-15.07,3.16-23.54
		c0-8.43-1.13-16.39-3.13-23.45c-0.78-2.73,1.61-5.33,4.41-4.82c0.02,0,0.04,0.01,0.06,0.01c15.91,2.92,29.38,6.27,39.8,9.97
		c4.43,1.57,8.31,3.18,11.6,4.85c1.12,0.57,1.91,1.64,2.08,2.88C385.75,38.34,386,41.88,386,45.53z"/>
</g>
<g>
	<path class="st1" d="M16,45.5c0,6.57,0.76,12.82,2.13,18.51c-5.03-1.88-9.3-3.87-12.72-5.92C4.82,54.18,4.5,50.07,4.5,45.83
		c0-4.24,0.32-8.35,0.91-12.26c3.39-2.03,7.6-3.99,12.55-5.86C16.69,33.2,16,39.21,16,45.5z"/>
</g>
<g>
	<path class="st2" d="M338.16,45.5c0,9.83-1.7,18.95-4.62,26.51c-0.28,0.74-0.58,1.47-0.89,2.18c-0.17,0.38-0.52,0.64-0.92,0.72
		c-0.71,0.13-1.42,0.26-2.15,0.38c-0.1,0.02-0.21,0.04-0.31,0.05c-0.97,0.17-1.74-0.8-1.36-1.7c3.32-7.86,5.28-17.59,5.28-28.14
		c0-10.24-1.85-19.71-4.99-27.44c-0.37-0.9,0.4-1.85,1.36-1.69c0.01,0,0.02,0,0.02,0c0.83,0.14,1.65,0.29,2.46,0.44
		c0.42,0.08,0.76,0.35,0.93,0.75c0.21,0.5,0.41,1,0.6,1.51C336.47,26.61,338.16,35.7,338.16,45.5z"/>
</g>
<g>
	<defs>
		<path id="SVGID_1_" d="M335,45.5c0,11.55-2.34,22.13-6.24,30.36c-10.47,1.75-21.87,3.3-34.03,4.61c-1.55,0.17-3.11,0.33-4.69,0.49
			c-27.72,2.79-59.19,4.37-92.54,4.37c-51.2,0-97.95-3.72-133.55-9.87c-3.62-0.62-7.13-1.27-10.51-1.94
			c-14.05-2.79-25.99-5.99-35.31-9.51c-0.2-0.83-0.39-1.67-0.55-2.52C16.56,56.5,16,51.11,16,45.5c0-5.89,0.6-11.53,1.73-16.73
			c0.07-0.36,0.15-0.71,0.23-1.06c9.35-3.53,21.35-6.76,35.48-9.57c3.47-0.69,7.06-1.35,10.78-1.99
			c35.57-6.11,82.21-9.82,133.28-9.82c33.2,0,64.53,1.57,92.15,4.34c1.58,0.15,3.14,0.32,4.69,0.48
			c12.43,1.33,24.08,2.91,34.75,4.71C332.79,23.98,335,34.28,335,45.5z"/>
	</defs>
	<use xlink:href="#SVGID_1_"  style="overflow:visible;fill:#8C6239;"/>
	<clipPath id="SVGID_2_">
		<use xlink:href="#SVGID_1_"  style="overflow:visible;"/>
	</clipPath>
	<path class="st3" d="M149.48,96.71c14.05-9.33,33.88-24.89,52-49c14.85-19.75,23.68-38.75,29-53"/>
	<path class="st3" d="M108.33,96.71c14.05-9.33,33.88-24.89,52-49c14.85-19.75,23.68-38.75,29-53"/>
	<path class="st3" d="M67.19,96.71c14.05-9.33,33.88-24.89,52-49c14.85-19.75,23.68-38.75,29-53"/>
	<path class="st3" d="M-15.1,96.71c14.05-9.33,33.88-24.89,52-49c14.85-19.75,23.68-38.75,29-53"/>
	<path class="st3" d="M26.05,96.71c14.05-9.33,33.88-24.89,52-49c14.85-19.75,23.68-38.75,29-53"/>
	<path class="st3" d="M190.62,96.71c14.05-9.33,33.88-24.89,52-49c14.85-19.75,23.68-38.75,29-53"/>
	<path class="st3" d="M231.76,96.71c14.05-9.33,33.88-24.89,52-49c14.85-19.75,23.68-38.75,29-53"/>
	<path class="st3" d="M272.9,96.71c14.05-9.33,33.88-24.89,52-49c14.85-19.75,23.68-38.75,29-53"/>
</g>
<g>
	<path class="st4" d="M17.73,28.77C16.6,33.97,16,39.61,16,45.5c0,5.61,0.56,11,1.58,15.99c-1.25-5.02-1.93-10.51-1.93-16.26
		c0-5.8,0.69-11.35,1.96-16.42C17.65,28.8,17.69,28.78,17.73,28.77z"/>
</g>
</svg>
