<?xml version="1.0" encoding="utf-8"?>
<!-- Generator: Adobe Illustrator 24.0.3, SVG Export Plug-In . SVG Version: 6.00 Build 0)  -->
<svg version="1.0" id="Layer_1" xmlns="http://www.w3.org/2000/svg" xmlns:xlink="http://www.w3.org/1999/xlink" x="0px" y="0px"
	 viewBox="0 0 1148.2 510" style="enable-background:new 0 0 1148.2 510;" xml:space="preserve">
<style type="text/css">
	.st0{fill:#726658;}
	.st1{fill:#39B54A;}
	.st2{fill:#009444;}
	.st3{fill:#006838;}
</style>
<rect x="145" y="249.5" class="st0" width="49.4" height="234.2"/>
<path class="st1" d="M304.9,213.2c0,17-10.8,31.4-25.9,36.8v0.1c0,17.6-14.3,31.9-31.9,31.9c-12.7,0-23.7-7.4-28.8-18.2
	c-7,6.4-16.3,10.4-26.5,10.4c-8.9,0-17.1-3-23.7-8c-6.3,5-14.2,8-22.9,8c-6.3,0-12.2-1.6-17.3-4.3c-6.6,7.8-16.5,12.8-27.6,12.8
	c-15.5,0-28.7-9.7-33.8-23.4c-2.7,0.4-5.4,0.6-8.2,0.6c-29.1,0-52.7-23.6-52.7-52.7s23.6-52.7,52.7-52.7c3.4,0,6.7,0.3,9.9,0.9
	c7-15.1,22.4-25.7,40.2-25.7c9.5,0,18.2,3,25.4,8c3.9-23,24-40.6,48.1-40.6c24.2,0,44.3,17.6,48.1,40.7c3.7-1.1,7.6-1.7,11.7-1.7
	c22.6,0,41,18.3,41,41c0,0.2,0,0.5,0,0.7C295.9,184.4,304.9,197.8,304.9,213.2z"/>
<rect x="294.6" y="194" class="st0" width="49.4" height="234.2"/>
<path class="st2" d="M454.4,157.7c0,17-10.8,31.4-25.9,36.8v0.1c0,17.6-14.3,31.9-31.9,31.9c-12.7,0-23.7-7.4-28.8-18.2
	c-7,6.4-16.3,10.4-26.5,10.4c-8.9,0-17.1-3-23.7-8c-6.3,5-14.2,8-22.9,8c-6.3,0-12.2-1.6-17.3-4.3c-6.6,7.8-16.5,12.8-27.6,12.8
	c-15.5,0-28.7-9.7-33.8-23.4c-2.7,0.4-5.4,0.6-8.2,0.6c-29.1,0-52.7-23.6-52.7-52.7S178.9,99,208,99c3.4,0,6.7,0.3,9.9,0.9
	c7-15.1,22.4-25.7,40.2-25.7c9.5,0,18.2,3,25.4,8c3.9-23,24-40.6,48.1-40.6c24.2,0,44.3,17.6,48.1,40.7c3.7-1.1,7.6-1.7,11.7-1.7
	c22.6,0,41,18.3,41,41c0,0.2,0,0.5,0,0.7C445.5,128.9,454.4,142.2,454.4,157.7z"/>
<rect x="433.8" y="262.7" class="st0" width="49.4" height="234.2"/>
<rect x="530.2" y="177.9" class="st0" width="49.4" height="234.2"/>
<path class="st3" d="M690.1,141.6c0,17-10.8,31.4-25.9,36.8v0.1c0,17.6-14.3,31.9-31.9,31.9c-12.7,0-23.7-7.4-28.8-18.2
	c-7,6.4-16.3,10.4-26.5,10.4c-8.9,0-17.1-3-23.7-8c-6.3,5-14.2,8-22.9,8c-6.3,0-12.2-1.6-17.3-4.3c-6.6,7.8-16.5,12.8-27.6,12.8
	c-15.5,0-28.7-9.7-33.8-23.4c-2.7,0.4-5.4,0.6-8.2,0.6c-29.1,0-52.7-23.6-52.7-52.7S414.6,83,443.7,83c3.4,0,6.7,0.3,9.9,0.9
	c7-15.1,22.4-25.7,40.2-25.7c9.5,0,18.2,3,25.4,8c3.9-23,24-40.6,48.1-40.6c24.2,0,44.3,17.6,48.1,40.7c3.7-1.1,7.6-1.7,11.7-1.7
	c22.6,0,41,18.3,41,41c0,0.2,0,0.5,0,0.7C681.1,112.8,690.1,126.2,690.1,141.6z"/>
<path class="st1" d="M593.6,226.4c0,17-10.8,31.4-25.9,36.8v0.1c0,17.6-14.3,31.9-31.9,31.9c-12.7,0-23.7-7.4-28.8-18.2
	c-7,6.4-16.3,10.4-26.5,10.4c-8.9,0-17.1-3-23.7-8c-6.3,5-14.2,8-22.9,8c-6.3,0-12.2-1.6-17.3-4.3c-6.6,7.8-16.5,12.8-27.6,12.8
	c-15.5,0-28.7-9.7-33.8-23.4c-2.7,0.4-5.4,0.6-8.2,0.6c-29.1,0-52.7-23.6-52.7-52.7s23.6-52.7,52.7-52.7c3.4,0,6.7,0.3,9.9,0.9
	c7-15.1,22.4-25.7,40.2-25.7c9.5,0,18.2,3,25.4,8c3.9-23,24-40.6,48.1-40.6c24.2,0,44.3,17.6,48.1,40.7c3.7-1.1,7.6-1.7,11.7-1.7
	c22.6,0,41,18.3,41,41c0,0.2,0,0.5,0,0.7C584.7,197.6,593.6,210.9,593.6,226.4z"/>
<rect x="705.3" y="221.7" class="st0" width="49.4" height="234.2"/>
<path class="st2" d="M865.2,185.4c0,17-10.8,31.4-25.9,36.8v0.1c0,17.6-14.3,31.9-31.9,31.9c-12.7,0-23.7-7.4-28.8-18.2
	c-7,6.4-16.3,10.4-26.5,10.4c-8.9,0-17.1-3-23.7-8c-6.3,5-14.2,8-22.9,8c-6.3,0-12.2-1.6-17.3-4.3c-6.6,7.8-16.5,12.8-27.6,12.8
	c-15.5,0-28.7-9.7-33.8-23.4c-2.7,0.4-5.4,0.6-8.2,0.6c-29.1,0-52.7-23.6-52.7-52.7s23.6-52.7,52.7-52.7c3.4,0,6.7,0.3,9.9,0.9
	c7-15.1,22.4-25.7,40.2-25.7c9.5,0,18.2,3,25.4,8c3.9-23,24-40.6,48.1-40.6c24.2,0,44.3,17.6,48.1,40.7c3.7-1.1,7.6-1.7,11.7-1.7
	c22.6,0,41,18.3,41,41c0,0.2,0,0.5,0,0.7C856.2,156.6,865.2,169.9,865.2,185.4z"/>
<rect x="869.9" y="159" class="st0" width="49.4" height="234.2"/>
<path class="st3" d="M1029.7,122.7c0,17-10.8,31.4-25.9,36.8v0.1c0,17.6-14.3,31.9-31.9,31.9c-12.7,0-23.7-7.4-28.8-18.2
	c-7,6.4-16.3,10.4-26.5,10.4c-8.9,0-17.1-3-23.7-8c-6.3,5-14.2,8-22.9,8c-6.3,0-12.2-1.6-17.3-4.3c-6.6,7.8-16.5,12.8-27.6,12.8
	c-15.5,0-28.7-9.7-33.8-23.4c-2.7,0.4-5.4,0.6-8.2,0.6c-29.1,0-52.7-23.6-52.7-52.7s23.6-52.7,52.7-52.7c3.4,0,6.7,0.3,9.9,0.9
	c7-15.1,22.4-25.7,40.2-25.7c9.5,0,18.2,3,25.4,8c3.9-23,24-40.6,48.1-40.6c24.2,0,44.3,17.6,48.1,40.7c3.7-1.1,7.6-1.7,11.7-1.7
	c22.6,0,41,18.3,41,41c0,0.2,0,0.5,0,0.7C1020.8,93.9,1029.7,107.3,1029.7,122.7z"/>
<rect x="979.6" y="264.9" class="st0" width="49.4" height="234.2"/>
<path class="st1" d="M1139.4,228.6c0,17-10.8,31.4-25.9,36.8v0.1c0,17.6-14.3,31.9-31.9,31.9c-12.7,0-23.7-7.4-28.8-18.2
	c-7,6.4-16.3,10.4-26.5,10.4c-8.9,0-17.1-3-23.7-8c-6.3,5-14.2,8-22.9,8c-6.3,0-12.2-1.6-17.3-4.3c-6.6,7.8-16.5,12.8-27.6,12.8
	c-15.5,0-28.7-9.7-33.8-23.4c-2.7,0.4-5.4,0.6-8.2,0.6c-29.1,0-52.7-23.6-52.7-52.7s23.6-52.7,52.7-52.7c3.4,0,6.7,0.3,9.9,0.9
	c7-15.1,22.4-25.7,40.2-25.7c9.5,0,18.2,3,25.4,8c3.9-23,24-40.6,48.1-40.6c24.2,0,44.3,17.6,48.1,40.7c3.7-1.1,7.6-1.7,11.7-1.7
	c22.6,0,41,18.3,41,41c0,0.2,0,0.5,0,0.7C1130.5,199.7,1139.4,213.1,1139.4,228.6z"/>
</svg>
