<?xml version="1.0" encoding="utf-8"?>
<!-- Generator: Adobe Illustrator 24.0.3, SVG Export Plug-In . SVG Version: 6.00 Build 0)  -->
<svg version="1.0" id="Layer_1" xmlns="http://www.w3.org/2000/svg" xmlns:xlink="http://www.w3.org/1999/xlink" x="0px" y="0px"
	 viewBox="0 0 612 122.7" style="enable-background:new 0 0 612 122.7;" xml:space="preserve">
<style type="text/css">
	.st0{fill:none;stroke:#000000;stroke-width:0.75;}
	.st1{fill:none;stroke:#000000;}
</style>
<g>
	<path class="st0" d="M-607.8,160.7h-8v-11.5h31.8v11.5h-9.9l12.2,39.3l18.5-43.5h6.8l18.5,43.5l11.4-39.3h-10.2v-11.5h31.8v11.5h-8
		l-20.1,64.1h-7.2l-20-46l-20.1,46h-7.2L-607.8,160.7z"/>
	<path class="st0" d="M-498.1,212.5h8.5v-51.8h-8.5v-11.5h55.8v21.4h-12.3v-10h-22.2v20h22.6v10.9h-22.6v21.1h22.3v-10h12.3V224
		h-55.9V212.5z"/>
	<path class="st0" d="M-432.5,212.5h8.5v-51.8h-8.5v-11.5h31.2v11.5h-9.9v51.9h20.6v-10.6h12.4V224h-54.3V212.5z"/>
	<path class="st0" d="M-373.7,186.6c0-22.5,17.5-38.7,39.3-38.7c17.4,0,29,9.1,29,18.1c0,5.5-3.5,9.2-8.2,9.2
		c-5.1,0-8.6-3.2-8.6-8.1c0-1.5,0.3-3,0.8-3.9c-2.2-1.7-6.5-3.4-13.3-3.4c-14.5,0-25.7,11.1-25.7,26.7c0,15,10.5,26.9,26.2,26.9
		c8.8,0,15.9-3.9,21.5-9.9l8.5,8.9c-7.3,8.1-18.1,13-30,13C-357.3,225.4-373.7,209.9-373.7,186.6z"/>
	<path class="st0" d="M-296.3,186.6c0-21.9,15.9-38.7,38.6-38.7c22.6,0,38.1,16.9,38.1,38.7c0,21.9-15.9,38.7-38.6,38.7
		C-280.8,225.4-296.3,208.5-296.3,186.6z M-232.9,186.6c0-15.6-10.6-26.8-25-26.8c-14.5,0-25.1,11.1-25.1,26.8
		c0,15.6,10.6,26.8,25.1,26.8C-243.4,213.5-232.9,202.3-232.9,186.6z"/>
	<path class="st0" d="M-211.8,212.5h8.9l2.4-51.8h-9.3v-11.5h20.5l23,41.6l23-41.6h20.3v11.5h-9.3l2.4,51.8h8.9V224H-152v-11.5h9
		l-1.5-38.5l-21.4,37.5h-1.7l-21.4-37.5l-1.5,38.5h9V224h-30.5V212.5z"/>
	<path class="st0" d="M-113.3,212.5h8.5v-51.8h-8.5v-11.5h55.8v21.4h-12.3v-10H-92v20h22.6v10.9H-92v21.1h22.3v-10h12.3V224h-55.9
		V212.5z"/>
</g>
<g>
	<path class="st1" d="M85.5,96.5c-0.7,0-1.2-0.5-1.4-1.1L73.6,59L63.5,95.2c-0.3,1-1,1.3-1.9,1.3H43.8c-0.7,0-1.3-0.5-1.5-1.2
		l-13-53.4h-8.2c-0.9,0-1.4-0.3-1.4-1.3V26.9c0-1,0.5-1.3,1.4-1.3h32.5c0.9,0,1.4,0.3,1.4,1.3v13.7c0,1-0.5,1.3-1.4,1.3h-7.2
		l8.4,37.8l11.9-44.2c0.2-0.7,0.8-1.1,1.5-1.1h12.5c0.7,0,1.3,0.4,1.5,1.1l11.4,44.1l8-37.7h-7.2c-0.9,0-1.4-0.3-1.4-1.3V26.9
		c0-1,0.5-1.3,1.4-1.3H127c0.9,0,1.4,0.3,1.4,1.3v13.7c0,1-0.5,1.3-1.4,1.3h-7.8l-13.5,53.3c-0.2,1-0.9,1.3-1.8,1.3H85.5z"/>
	<path class="st1" d="M134.1,96.5c-1,0-1.6-0.5-1.6-1.7V81.9c0-1.2,0.4-1.7,1.8-1.7h7.2V41.9h-7.2c-1.4,0-1.8-0.5-1.8-1.7V27.3
		c0-1.2,0.6-1.7,1.6-1.7h63.5c0.7,0,1.2,0.4,1.2,1.1v24.2c0,0.9-0.4,1.2-1.2,1.2h-8.3c-0.9,0-1.2-0.5-1.4-1l-3.4-9.2h-25.9v11.6
		h21.4c1.2,0,1.7,0.6,1.7,1.6v10.5c0,1.4-0.5,1.8-1.7,1.8h-21.4v12.8h26l3.3-10.1c0.3-0.9,0.7-1.5,2.1-1.5h7c1.4,0,1.8,0.5,1.8,1.7
		v24.5c0,0.8-0.3,1.7-1.6,1.7H134.1z"/>
	<path class="st1" d="M206.7,96.5c-1,0-1.6-0.5-1.6-1.7V81.9c0-1.2,0.4-1.7,1.8-1.7h7.2V41.9h-7.2c-1.4,0-1.8-0.5-1.8-1.7V27.3
		c0-1.2,0.6-1.7,1.6-1.7h32.6c1,0,1.6,0.5,1.6,1.7v12.9c0,1.2-0.4,1.7-1.8,1.7h-8.1v38.3h19.2l4.5-16.7c0.3-1.1,0.6-1.6,2-1.6h7.8
		c1.4,0,1.8,0.5,1.8,1.7v31.2c0,0.8-0.3,1.7-1.6,1.7H206.7z"/>
	<path class="st1" d="M339,85.2c0,1.1-0.3,2-1,2.6c-4.5,3.9-13.3,9.9-28.5,9.9c-22.1,0-37.6-13.7-37.6-36.9
		c0-21.1,14.9-36.5,38.2-36.5c17.3,0,27.2,8.7,28.3,9.8c1.3,1.3,1.5,2.1,1.5,2.6v15.9c0,0.9-0.5,1.3-1.3,1.6l-5.2,1.9
		c-1.1,0.4-1.9-0.3-2.1-0.8c-2.8-7.7-10-14-21.9-14c-7.8,0-20.6,4.7-20.6,18.9c0,13.9,11.6,19.9,20.6,19.9
		c11.1,0,19.7-4.8,23.2-11.8c0.3-0.5,0.8-0.7,1.3-0.6l4.2,1c0.5,0.1,0.9,0.5,0.9,1.1V85.2z"/>
	<path class="st1" d="M383.7,97.7c-20.1,0-37.2-13.6-37.2-36.7s17.1-36.7,37.2-36.7c20.1,0,37.1,13.6,37.1,36.7
		S403.8,97.7,383.7,97.7z M383.7,43c-10.9,0-20.2,7-20.2,18s9.2,18,20.2,18c10.9,0,20.1-7,20.1-18S394.7,43,383.7,43z"/>
	<path class="st1" d="M485.4,96.5c-1,0-1.6-0.5-1.6-1.7V81.9c0-1.2,0.4-1.7,1.8-1.7h7.8v-35l-17.9,39.1c-0.5,0.9-1,1.3-2.2,1.3h-6
		c-1.3,0-1.6-0.5-2.1-1.5l-18-38.6v34.7h7.6c0.9,0,1.4,0.3,1.4,1.3v13.7c0,1-0.5,1.3-1.4,1.3h-29.9c-0.9,0-1.4-0.3-1.4-1.3V81.5
		c0-1,0.5-1.3,1.4-1.3h7.6V41.9h-7.6c-0.9,0-1.4-0.3-1.4-1.3V26.9c0-1,0.5-1.3,1.4-1.3h28.8c1.5,0,2.9,0.2,3.6,1.9l13.5,33.7
		l13.8-33.5c0.7-1.8,1.8-2,3.3-2h27.9c1,0,1.6,0.5,1.6,1.7v12.9c0,1.2-0.4,1.7-1.8,1.7h-7.2v38.3h7.2c1.4,0,1.8,0.5,1.8,1.7v12.9
		c0,1.2-0.6,1.7-1.6,1.7H485.4z"/>
	<path class="st1" d="M524,96.5c-1,0-1.6-0.5-1.6-1.7V81.9c0-1.2,0.4-1.7,1.8-1.7h7.2V41.9h-7.2c-1.4,0-1.8-0.5-1.8-1.7V27.3
		c0-1.2,0.6-1.7,1.6-1.7h63.4c0.7,0,1.2,0.4,1.2,1.1v24.2c0,0.9-0.4,1.2-1.2,1.2h-8.3c-0.9,0-1.2-0.5-1.4-1l-3.4-9.2h-25.9v11.6
		h21.4c1.2,0,1.7,0.6,1.7,1.6v10.5c0,1.4-0.5,1.8-1.7,1.8h-21.4v12.8h26l3.3-10.1c0.3-0.9,0.7-1.5,2.1-1.5h7c1.4,0,1.8,0.5,1.8,1.7
		v24.5c0,0.8-0.3,1.7-1.6,1.7H524z"/>
</g>
</svg>
